{
  "accessors": [
    {
      "bufferView": 2,
      "componentType": 5126,
      "count": 470,
      "max": [
        1.3917524814605713,
        1.4633752107620239,
        5.4093170166015625
      ],
      "min": [
        -1.3917524814605713,
        -1.4143091440200806,
        -1.2586512565612793
      ],
      "type": "VEC3"
    },
    {
      "bufferView": 2,
      "byteOffset": 5640,
      "componentType": 5126,
      "count": 470,
      "max": [
        0.97626364231109619,
        0.93968433141708374,
        0.32153841853141785
      ],
      "min": [
        -0.97626364231109619,
        -0.95804047584533691,
        -0.91123193502426147
      ],
      "type": "VEC3"
    },
    {
      "bufferView": 1,
      "componentType": 5126,
      "count": 470,
      "max": [
        1,
        1
      ],
      "min": [
        -7.4505805969238281e-08,
        0.5
      ],
      "type": "VEC2"
    },
    {
      "bufferView": 0,
      "componentType": 5125,
      "count": 690,
      "max": [
        469
      ],
      "min": [
        0
      ],
      "type": "SCALAR"
    },
    {
      "bufferView": 2,
      "byteOffset": 11280,
      "componentType": 5126,
      "count": 100,
      "max": [
        0.21074986457824707,
        0.22159552574157715,
        -0.36027881503105164
      ],
      "min": [
        -0.21074986457824707,
        -0.22159552574157715,
        -2.0040426254272461
      ],
      "type": "VEC3"
    },
    {
      "bufferView": 2,
      "byteOffset": 12480,
      "componentType": 5126,
      "count": 100,
      "max": [
        0.99771863222122192,
        0.9488869309425354,
        1
      ],
      "min": [
        -0.99771857261657715,
        -0.94888681173324585,
        -1
      ],
      "type": "VEC3"
    },
    {
      "bufferView": 1,
      "byteOffset": 3760,
      "componentType": 5126,
      "count": 100,
      "max": [
        1,
        1
      ],
      "min": [
        -7.4505805969238281e-08,
        0.01000000536441803
      ],
      "type": "VEC2"
    },
    {
      "bufferView": 0,
      "byteOffset": 2760,
      "componentType": 5125,
      "count": 168,
      "max": [
        99
      ],
      "min": [
        0
      ],
      "type": "SCALAR"
    }
  ],
  "asset": {
    "extras": {
      "author": "XNdrive (https://sketchfab.com/XNdrive)",
      "license": "CC-BY-SA-4.0 (http://creativecommons.org/licenses/by-sa/4.0/)",
      "source": "https://sketchfab.com/3d-models/low-poly-tree-1-b512acc620ab4040ae942886ac5146f5",
      "title": "Low Poly Tree 1"
    },
    "generator": "Sketchfab-8.72.2",
    "version": "2.0"
  },
  "bufferViews": [
    {
      "buffer": 0,
      "byteLength": 3432,
      "byteOffset": 0,
      "name": "floatBufferViews",
      "target": 34963
    },
    {
      "buffer": 0,
      "byteLength": 4560,
      "byteOffset": 3432,
      "byteStride": 8,
      "name": "floatBufferViews",
      "target": 34962
    },
    {
      "buffer": 0,
      "byteLength": 13680,
      "byteOffset": 7992,
      "byteStride": 12,
      "name": "floatBufferViews",
      "target": 34962
    }
  ],
  "buffers": [
    {
      "byteLength": 21672,
      "uri": "scene.bin"
    }
  ],
  "materials": [
    {
      "doubleSided": true,
      "emissiveFactor": [
        0,
        0,
        0
      ],
      "name": "leaves.001",
      "pbrMetallicRoughness": {
        "baseColorFactor": [
          0.26204100000000002,
          0.80000000000000004,
          0.0184818,
          1
        ],
        "metallicFactor": 0,
        "roughnessFactor": 0.85930564077404947
      }
    },
    {
      "doubleSided": true,
      "emissiveFactor": [
        0,
        0,
        0
      ],
      "name": "trunk.001",
      "pbrMetallicRoughness": {
        "baseColorFactor": [
          0.52043300000000003,
          0.10062,
          0.00285396,
          1
        ],
        "metallicFactor": 0,
        "roughnessFactor": 0.95912165069408828
      }
    }
  ],
  "meshes": [
    {
      "name": "tree_leaves.001_0",
      "primitives": [
        {
          "attributes": {
            "NORMAL": 1,
            "POSITION": 0,
            "TEXCOORD_0": 2
          },
          "indices": 3,
          "material": 0,
          "mode": 4
        }
      ]
    },
    {
      "name": "tree_trunk.001_0",
      "primitives": [
        {
          "attributes": {
            "NORMAL": 5,
            "POSITION": 4,
            "TEXCOORD_0": 6
          },
          "indices": 7,
          "material": 1,
          "mode": 4
        }
      ]
    }
  ],
  "nodes": [
    {
      "children": [
        1
      ],
      "name": "RootNode (gltf orientation matrix)",
      "rotation": [
        -0.70710678118654746,
        -0,
        -0,
        0.70710678118654757
      ]
    },
    {
      "children": [
        2
      ],
      "name": "RootNode (model correction matrix)"
    },
    {
      "children": [
        3
      ],
      "matrix": [
        1,
        0,
        0,
        0,
        0,
        0,
        1,
        0,
        0,
        -1,
        0,
        0,
        0,
        0,
        0,
        1
      ],
      "name": "a22b0022e38f40d5b400ae2c0abe730b.fbx"
    },
    {
      "children": [
        4
      ],
      "name": "RootNode"
    },
    {
      "children": [
        5,
        6
      ],
      "matrix": [
        100,
        0,
        0,
        0,
        0,
        -4.3711390063094768e-06,
        -99.999999999999901,
        0,
        0,
        99.999999999999901,
        -4.3711390063094768e-06,
        0,
        0,
        200,
        0,
        1
      ],
      "name": "tree"
    },
    {
      "mesh": 0,
      "name": "tree_leaves.001_0"
    },
    {
      "mesh": 1,
      "name": "tree_trunk.001_0"
    }
  ],
  "scene": 0,
  "scenes": [
    {
      "name": "OSG_Scene",
      "nodes": [
        0
      ]
    }
  ]
}

