{
  "accessors": [
    {
      "bufferView": 2,
      "componentType": 5126,
      "count": 65532,
      "max": [
        9.5706253051757812,
        36.542926788330078,
        17.000186920166016
      ],
      "min": [
        -15.483474731445312,
        4.9922580718994141,
        -16.496173858642578
      ],
      "type": "VEC3"
    },
    {
      "bufferView": 2,
      "byteOffset": 786384,
      "componentType": 5126,
      "count": 65532,
      "max": [
        0.99993854761123657,
        0.99988925457000732,
        0.99991756677627563
      ],
      "min": [
        -0.99999254941940308,
        -0.9999769926071167,
        -0.99979400634765625
      ],
      "type": "VEC3"
    },
    {
      "bufferView": 3,
      "componentType": 5126,
      "count": 65532,
      "max": [
        0.99993103742599487,
        0.99998682737350464,
        0.99999493360519409,
        1
      ],
      "min": [
        -0.99996578693389893,
        -0.99996042251586914,
        -0.99999439716339111,
        -1
      ],
      "type": "VEC4"
    },
    {
      "bufferView": 3,
      "byteOffset": 1048512,
      "componentType": 5126,
      "count": 65532,
      "max": [
        0.99607843160629272,
        1,
        1,
        1
      ],
      "min": [
        0,
        0,
        0,
        1
      ],
      "type": "VEC4"
    },
    {
      "bufferView": 1,
      "componentType": 5126,
      "count": 65532,
      "max": [
        0.99901902675628662,
        0.99989598989486694
      ],
      "min": [
        0.00033599999733269215,
        0.0010199999669566751
      ],
      "type": "VEC2"
    },
    {
      "bufferView": 0,
      "componentType": 5125,
      "count": 344715,
      "max": [
        65531
      ],
      "min": [
        0
      ],
      "type": "SCALAR"
    },
    {
      "bufferView": 2,
      "byteOffset": 1572768,
      "componentType": 5126,
      "count": 53432,
      "max": [
        9.0714569091796875,
        35.929313659667969,
        14.759763717651367
      ],
      "min": [
        -12.352996826171875,
        5.722869873046875,
        -14.992841720581055
      ],
      "type": "VEC3"
    },
    {
      "bufferView": 2,
      "byteOffset": 2213952,
      "componentType": 5126,
      "count": 53432,
      "max": [
        0.9999842643737793,
        1,
        0.99997961521148682
      ],
      "min": [
        -0.99998557567596436,
        -0.99997752904891968,
        -0.99999785423278809
      ],
      "type": "VEC3"
    },
    {
      "bufferView": 3,
      "byteOffset": 2097024,
      "componentType": 5126,
      "count": 53432,
      "max": [
        0.99993503093719482,
        0.99995499849319458,
        1,
        1
      ],
      "min": [
        -0.9999963641166687,
        -1,
        -0.99995505809783936,
        -1
      ],
      "type": "VEC4"
    },
    {
      "bufferView": 3,
      "byteOffset": 2951936,
      "componentType": 5126,
      "count": 53432,
      "max": [
        0.99215686321258545,
        0.99215686321258545,
        0.99215686321258545,
        1
      ],
      "min": [
        0,
        0,
        0,
        1
      ],
      "type": "VEC4"
    },
    {
      "bufferView": 1,
      "byteOffset": 524256,
      "componentType": 5126,
      "count": 53432,
      "max": [
        0.99901199340820312,
        0.99988698959350586
      ],
      "min": [
        0.00098000001162290573,
        0.00016599999798927456
      ],
      "type": "VEC2"
    },
    {
      "bufferView": 0,
      "byteOffset": 1378860,
      "componentType": 5125,
      "count": 255282,
      "max": [
        53431
      ],
      "min": [
        0
      ],
      "type": "SCALAR"
    }
  ],
  "asset": {
    "extras": {
      "author": "Adil (https://sketchfab.com/Adil192)",
      "license": "CC-BY-4.0 (http://creativecommons.org/licenses/by/4.0/)",
      "source": "https://sketchfab.com/3d-models/low-poly-tree-b37cfcebbcb34928950ba2906f47919e",
      "title": "Low-Poly Tree"
    },
    "generator": "Sketchfab-8.63.0",
    "version": "2.0"
  },
  "bufferViews": [
    {
      "buffer": 0,
      "byteLength": 2399988,
      "byteOffset": 0,
      "name": "floatBufferViews",
      "target": 34963
    },
    {
      "buffer": 0,
      "byteLength": 951712,
      "byteOffset": 2399988,
      "byteStride": 8,
      "name": "floatBufferViews",
      "target": 34962
    },
    {
      "buffer": 0,
      "byteLength": 2855136,
      "byteOffset": 3351700,
      "byteStride": 12,
      "name": "floatBufferViews",
      "target": 34962
    },
    {
      "buffer": 0,
      "byteLength": 3806848,
      "byteOffset": 6206836,
      "byteStride": 16,
      "name": "floatBufferViews",
      "target": 34962
    }
  ],
  "buffers": [
    {
      "byteLength": 10013684,
      "uri": "scene.bin"
    }
  ],
  "images": [
    {
      "uri": "textures/tree_baseColor.jpeg"
    },
    {
      "uri": "textures/tree_normal.png"
    }
  ],
  "materials": [
    {
      "doubleSided": true,
      "name": "tree",
      "normalTexture": {
        "index": 1,
        "scale": 1,
        "texCoord": 0
      },
      "pbrMetallicRoughness": {
        "baseColorFactor": [
          1,
          1,
          1,
          1
        ],
        "baseColorTexture": {
          "index": 0,
          "texCoord": 0
        },
        "metallicFactor": 0,
        "roughnessFactor": 1
      }
    }
  ],
  "meshes": [
    {
      "primitives": [
        {
          "attributes": {
            "COLOR_0": 3,
            "NORMAL": 1,
            "POSITION": 0,
            "TANGENT": 2,
            "TEXCOORD_0": 4
          },
          "indices": 5,
          "material": 0,
          "mode": 4
        }
      ]
    },
    {
      "primitives": [
        {
          "attributes": {
            "COLOR_0": 9,
            "NORMAL": 7,
            "POSITION": 6,
            "TANGENT": 8,
            "TEXCOORD_0": 10
          },
          "indices": 11,
          "material": 0,
          "mode": 4
        }
      ]
    }
  ],
  "nodes": [
    {
      "children": [
        1
      ],
      "name": "RootNode (gltf orientation matrix)",
      "rotation": [
        -0.70710678118654746,
        -0,
        -0,
        0.70710678118654757
      ]
    },
    {
      "children": [
        2
      ],
      "matrix": [
        -0.05989271486930825,
        0.033076027578783807,
        -0.16827768306471835,
        0,
        0.14109488883145183,
        -0.091818346845080612,
        -0.068265390167342233,
        0,
        -0.097486598648531597,
        -0.15321196727228958,
        0.004582268552630081,
        0,
        -19.926540374755859,
        32.015499114990234,
        5.3113021850585938,
        1
      ],
      "name": "RootNode (model correction matrix)"
    },
    {
      "children": [
        3,
        4
      ],
      "name": "tree.obj.cleaner.materialmerger.gles"
    },
    {
      "mesh": 0,
      "name": ""
    },
    {
      "mesh": 1,
      "name": ""
    }
  ],
  "samplers": [
    {
      "magFilter": 9729,
      "minFilter": 9987,
      "wrapS": 10497,
      "wrapT": 10497
    }
  ],
  "scene": 0,
  "scenes": [
    {
      "name": "OSG_Scene",
      "nodes": [
        0
      ]
    }
  ],
  "textures": [
    {
      "sampler": 0,
      "source": 0
    },
    {
      "sampler": 0,
      "source": 1
    }
  ]
}

